<svg width="70" height="70" viewBox="0 0 70 70" fill="none" xmlns="http://www.w3.org/2000/svg">
<path d="M48.1355 0C61.565 0 70 8.372 70 21.8855V30.877C70 32.3365 68.8135 33.523 67.354 33.523H67.3225V33.46C65.8455 33.46 64.6485 32.2665 64.645 30.7895V21.8855C64.645 11.2 58.8 5.355 48.146 5.355H21.896C11.235 5.355 5.355 11.235 5.355 21.8855V48.1355C5.355 58.7545 11.235 64.6345 21.8855 64.6345H48.1355C58.786 64.6345 64.6345 58.7545 64.6345 48.1355C64.6345 46.6585 65.8315 45.458 67.312 45.458C68.7925 45.458 69.9895 46.6585 69.9895 48.1355C70 61.628 61.628 70 48.146 70H21.8855C8.372 70 0 61.628 0 48.146V21.896C0 8.372 8.372 0 21.8855 0H48.1355ZM45.6036 24.8377C46.6291 23.8123 48.2916 23.8123 49.3171 24.8377C50.3426 25.8632 50.3426 27.5258 49.3171 28.5513L32.7026 45.1657C32.2091 45.6558 31.5406 45.9323 30.8476 45.9323C30.1476 45.9323 29.4826 45.6558 28.9891 45.1657L20.6836 36.8568C19.6581 35.8313 19.6581 34.1687 20.6836 33.1432C21.7091 32.1177 23.3716 32.1177 24.3971 33.1432L30.8476 39.5973L45.6036 24.8377Z" fill="#8FAEE6"/>
</svg>
