<svg width="60" height="70" viewBox="0 0 60 70" fill="none" xmlns="http://www.w3.org/2000/svg">
<path d="M38.6101 0C38.684 0 38.7438 0.0352361 38.8142 0.0422833H39.5355C40.2533 0.0422833 40.9395 0.334743 41.4391 0.856237L59.2646 19.4468C59.7361 19.9401 60 20.5955 60 21.2791V54.0521C60 62.8436 52.931 70 44.2365 70H16.1295C6.93174 70 0 63.1431 0 54.0521V45.222C0 43.7632 1.18227 42.5793 2.63899 42.5793C4.09571 42.5793 5.27797 43.7632 5.27797 45.222V54.0521C5.27797 60.229 9.84166 64.7146 16.1295 64.7146H44.2365C50.0211 64.7146 54.722 59.9295 54.722 54.0521V22.3397L41.2491 8.29105V12.8999C41.2491 16.4376 44.1239 19.3199 47.6566 19.327C49.1133 19.3305 50.292 20.5144 50.2885 21.9767C50.285 23.432 49.1063 24.6124 47.6495 24.6124C41.2104 24.5983 35.9711 19.3446 35.9711 12.8999V5.3277H16.1295C10.2463 5.3277 5.27797 10.1339 5.27797 15.8245V30.8562C5.27797 32.315 4.09571 33.4989 2.63899 33.4989C1.18227 33.4989 0 32.315 0 30.8562V15.8245C0 7.2692 7.38564 0.0422833 16.1295 0.0422833H38.4061C38.4799 0.0352361 38.5398 0 38.6101 0ZM29.3561 27.1822C30.8128 27.1822 31.9951 28.3661 31.9951 29.8249V35.8185H37.9803C39.437 35.8185 40.6193 37.0025 40.6193 38.4612C40.6193 39.92 39.437 41.1039 37.9803 41.1039H31.9951V47.0941C31.9951 48.5529 30.8128 49.7368 29.3561 49.7368C27.8994 49.7368 26.7171 48.5529 26.7171 47.0941V41.1039H20.7354C19.2787 41.1039 18.0964 39.92 18.0964 38.4612C18.0964 37.0025 19.2787 35.8185 20.7354 35.8185H26.7171V29.8249C26.7171 28.3661 27.8994 27.1822 29.3561 27.1822Z" fill="#8FAEE6"/>
</svg>
