<svg width="70" height="70" viewBox="0 0 70 70" fill="none" xmlns="http://www.w3.org/2000/svg">
<path d="M64.9578 23.7656C66.3637 23.7825 67.4943 24.9245 67.4943 26.3273V48.9816C67.4943 61.9445 59.39 70 46.3984 70H36.0671C34.644 70 33.4857 68.8581 33.4687 67.4383C33.4854 66.0134 34.639 64.8624 36.0671 64.8457H46.3984C56.637 64.8457 62.2976 59.2284 62.3904 48.9816V26.3273C62.3904 24.9125 63.5399 23.7656 64.9578 23.7656ZM43.8311 2.7163C45.254 2.7332 46.3984 3.88901 46.3984 5.30888C46.3984 5.99368 46.1238 6.64998 45.6356 7.13129C45.1474 7.61261 44.4864 7.87885 43.8001 7.8706H21.0649C10.8263 7.8706 5.16569 13.5187 5.16569 23.7656V48.9816C5.16569 59.2284 10.8263 64.8457 21.0649 64.8457C22.4929 64.8624 23.6465 66.0134 23.6632 67.4383C23.6463 68.8581 22.4879 70 21.0649 70C8.07333 70 0 61.9445 0 48.9816V23.7656C0 10.7718 8.07333 2.7163 21.0649 2.7163H43.8311ZM47.742 26.1595C48.6453 25.5442 49.8624 25.5619 50.7536 26.2459C51.7563 27.0155 52.0477 28.3991 51.4404 29.5063L41.5421 42.2532C41.1087 42.7869 40.4907 43.1393 39.8099 43.2408C39.1322 43.3096 38.4547 43.1101 37.923 42.6853L28.4268 35.247L19.8895 46.3272C19.4824 46.8799 18.8702 47.2465 18.19 47.3452C17.5097 47.4438 16.8183 47.2661 16.2704 46.8519C15.1523 45.9773 14.9456 44.3687 15.8064 43.2408L25.9213 30.0927C26.3432 29.5476 26.9652 29.1924 27.65 29.1056C28.3348 29.0187 29.0261 29.2073 29.5713 29.6298L39.0675 37.068L47.4192 26.4199L47.742 26.1595ZM57.404 0.699873C60.8013 -0.714346 64.7179 0.0543535 67.3252 2.64707C69.9325 5.23978 70.7162 9.14509 69.3105 12.5396C67.9047 15.9341 64.5867 18.1483 60.9057 18.1483C55.8952 18.1483 51.8286 14.1046 51.8115 9.10517L51.8322 8.46101C52.0629 5.04849 54.2067 2.0309 57.404 0.699873ZM60.9057 5.18543C58.7361 5.18543 56.9773 6.94035 56.9773 9.10517C56.9773 11.27 58.7361 13.0249 60.9057 13.0249C63.0753 13.0249 64.8341 11.27 64.8341 9.10517C64.8341 6.94035 63.0753 5.18543 60.9057 5.18543Z" fill="#8FAEE6"/>
</svg>
