<svg width="70" height="70" viewBox="0 0 70 70" fill="none" xmlns="http://www.w3.org/2000/svg">
<path d="M9.78 49.6829C11.229 49.6829 12.405 50.8593 12.405 52.3087C12.405 55.2252 14.7746 57.5955 17.6936 57.5955H21.2916C24.0952 57.599 26.7342 58.6913 28.7187 60.6625L31.2422 63.1903C32.2643 64.2091 33.5908 64.7553 34.9978 64.7553C36.4328 64.8113 37.7488 64.2056 38.7498 63.1938C39.7718 62.1714 41.4344 62.1609 42.4634 63.1833C43.4889 64.2091 43.4924 65.8722 42.4704 66.9015C40.4159 68.9672 37.7068 70 34.9978 70C32.3098 70 29.6182 68.9812 27.5672 66.94L25.0122 64.3842C24.0217 63.4003 22.6951 62.8507 21.2846 62.8472H17.6936C11.8835 62.8472 7.15497 58.1206 7.15497 52.3087C7.15497 50.8593 8.33098 49.6829 9.78 49.6829ZM52.3037 7.14225C58.1138 7.14225 62.8424 11.8688 62.8424 17.6842V21.2834C62.8459 22.6873 63.3919 24.0143 64.3824 25.0121L66.8954 27.5259C68.8869 29.504 69.9894 32.1474 70 34.9658C70.0069 37.7842 68.9184 40.4346 66.9339 42.4303L64.3789 44.9861C63.4059 45.9664 62.8459 47.3214 62.8424 48.7113V52.307C62.8424 58.1189 58.1138 62.8489 52.3037 62.8489C50.8547 62.8489 49.6787 61.6725 49.6787 60.2231C49.6787 58.7736 50.8547 57.5972 52.3037 57.5972C55.2228 57.5972 57.5923 55.2234 57.5923 52.307V48.7078C57.5958 45.8999 58.6843 43.26 60.6618 41.2784L63.1819 38.7541C64.2074 37.7247 64.7534 36.3943 64.7499 34.9798C64.7464 33.5689 64.1899 32.2419 63.1889 31.2441L60.6653 28.7198C58.6843 26.7241 57.5958 24.0878 57.5923 21.2869V17.6842C57.5923 14.7642 55.2228 12.394 52.3037 12.394C50.8547 12.394 49.6787 11.2176 49.6787 9.76811C49.6787 8.31864 50.8547 7.14225 52.3037 7.14225ZM43.9939 40.9633C45.6705 40.9633 47.032 42.3252 47.032 44.0023C47.032 45.6793 45.6705 47.0413 43.9939 47.0413C42.3139 47.0413 40.9559 45.6793 40.9559 44.0023C40.9559 42.3252 42.3139 40.9633 43.9939 40.9633ZM42.1386 24.1396C43.1641 23.1138 44.8231 23.1138 45.8486 24.1396C46.8741 25.1654 46.8741 26.8285 45.8486 27.8543L27.8619 45.8502C27.3474 46.3613 26.6754 46.6169 26.0034 46.6169C25.3314 46.6169 24.6594 46.3613 24.1484 45.8502C23.1229 44.8243 23.1229 43.1613 24.1484 42.1355L42.1386 24.1396ZM27.5322 3.08793C31.4872 -0.871858 37.8923 -1.04692 42.0224 2.69931C42.1624 2.80434 42.3024 2.90937 42.4424 3.04942C42.8974 3.53958 43.1774 4.16979 43.1774 4.87001C43.1774 6.34049 41.9874 7.49587 40.5523 7.49587C39.8523 7.49587 39.2223 7.21578 38.7673 6.79564C38.7323 6.76063 38.7323 6.76063 38.6973 6.72912C36.5973 4.72997 33.2723 4.76498 31.2422 6.79564L28.7222 9.31646C26.7272 11.3121 24.1022 12.3975 21.3021 12.3975H17.6971C14.7921 12.3975 12.412 14.7782 12.412 17.6842V21.2904C12.412 24.0948 11.327 26.7206 9.332 28.7128L6.81197 31.2371C4.74694 33.3343 4.74694 36.6954 6.81197 38.7611C7.82698 39.7764 7.82698 41.4219 6.81197 42.4758C6.32196 42.9624 5.62195 43.2425 4.95695 43.2425C4.29194 43.2425 3.62693 42.9974 3.10192 42.4758C-1.02812 38.3794 -1.02812 31.6888 3.06692 27.5574L5.62195 25.0016C6.60196 24.0213 7.16197 22.6908 7.16197 21.2904V17.6842C7.16197 11.8723 11.887 7.14576 17.6971 7.14576H21.3021C22.7021 7.14576 24.0322 6.58907 25.0122 5.60525L27.5322 3.08793ZM25.9722 23.0133C27.6488 23.0133 29.0103 24.3752 29.0103 26.0523C29.0103 27.7293 27.6488 29.0878 25.9722 29.0878C24.2957 29.0878 22.9342 27.7293 22.9342 26.0523C22.9342 24.3752 24.2957 23.0133 25.9722 23.0133Z" fill="#8FAEE6"/>
</svg>
