<svg width="60" height="70" viewBox="0 0 60 70" fill="none" xmlns="http://www.w3.org/2000/svg">
<path d="M27.8281 0.351741C29.23 -0.117247 30.7736 -0.117247 32.1719 0.351741L55.6162 8.28604C58.2385 9.17502 60 11.569 60 14.2499V37.4928C60 44.5381 57.3596 51.3595 52.569 56.6828C50.3753 59.1223 47.5605 61.2187 43.9649 63.0947L31.293 69.692C30.8971 69.895 30.4613 70 30.0218 70C29.586 70 29.1501 69.895 28.7542 69.692L16.0569 63.0912C12.454 61.2117 9.63559 59.1153 7.44552 56.6863C2.6477 51.356 0 44.5311 0 37.4788C0 36.0578 1.19855 34.9029 2.67312 34.9029C4.1477 34.9029 5.34625 36.0578 5.34625 37.4788C5.34625 43.2957 7.52542 48.9165 11.4806 53.3124C13.2421 55.2689 15.5702 56.9838 18.5956 58.5588L30.0218 64.4981L41.4225 58.5623C44.4407 56.9908 46.7688 55.2759 48.5339 53.3124C52.4818 48.92 54.6574 43.3062 54.6574 37.4928V14.2499C54.6574 13.7529 54.3305 13.3119 53.8475 13.1474L30.4031 5.21312C30.1453 5.12562 29.8584 5.12562 29.5969 5.21312L6.15617 13.1474C5.67312 13.3119 5.34625 13.7529 5.34625 14.2499V20.8997C5.34625 22.3242 4.1477 23.4792 2.67312 23.4792C1.19855 23.4792 0 22.3242 0 20.8997V14.2499C0 11.569 1.76513 9.17502 4.38741 8.28604L27.8281 0.351741ZM39.4736 25.3387C40.516 24.3342 42.2085 24.3342 43.2508 25.3387C44.2932 26.3431 44.2932 27.9741 43.2508 28.9786L29.3695 42.3552C28.8683 42.8382 28.1891 43.1112 27.4809 43.1112C26.769 43.1112 26.0935 42.8382 25.5923 42.3552L18.8513 35.8594C17.809 34.8514 17.809 33.2275 18.8513 32.2195C19.8973 31.2115 21.5862 31.2115 22.6286 32.2195L27.4809 36.8919L39.4736 25.3387Z" fill="#8FAEE6"/>
</svg>
