<svg width="70" height="70" viewBox="0 0 70 70" fill="none" xmlns="http://www.w3.org/2000/svg">
<path d="M50.2565 0C62.0655 0 70 8.288 70 20.6255V28.9205C70 30.268 68.9045 31.3635 67.557 31.3635C66.2095 31.3635 65.114 30.268 65.114 28.9205V20.6255C65.114 11.06 59.283 4.886 50.2565 4.886H19.7435C10.717 4.886 4.8825 11.06 4.8825 20.6255V49.3745C4.8825 58.94 10.717 65.114 19.7435 65.114H50.253C59.2795 65.114 65.114 58.94 65.114 49.3745V45.577C64.582 45.136 64.0395 44.6635 63.49 44.1875C59.64 40.859 55.6675 37.422 51.324 38.4265C48.2895 39.13 46.5955 41.6325 44.6355 44.527C42.945 47.026 41.195 49.609 38.3705 51.359C34.153 53.97 29.701 52.024 26.446 50.603L25.907 50.3685C21.854 48.5975 19.131 48.9545 16.5165 51.59C15.568 52.5455 14.021 52.5595 13.0655 51.604C12.11 50.6555 12.103 49.105 13.0515 48.1495C17.115 44.0545 21.9555 43.316 27.8565 45.885L28.406 46.13C31.64 47.544 33.901 48.3875 35.8015 47.2045C37.737 46.011 39.123 43.96 40.593 41.7865C42.8085 38.5175 45.318 34.804 50.218 33.6665C56.98 32.0915 62.3595 36.7535 66.6855 40.4915C67.5045 41.202 68.3025 41.895 69.0795 42.5145C69.6605 42.98 69.9965 43.68 69.9965 44.422L70 49.3745C70 61.712 62.062 70 50.253 70H19.7435C7.9345 70 0 61.712 0 49.3745V20.6255C0 8.288 7.9345 0 19.7435 0H50.2565ZM23.9876 14.7773C28.9261 14.7773 32.9406 18.7953 32.9406 23.7304C32.9406 28.6688 28.9261 32.6869 23.9876 32.6869C19.0491 32.6869 15.0346 28.6688 15.0346 23.7304C15.0346 18.7953 19.0491 14.7773 23.9876 14.7773ZM23.9876 19.6634C21.7441 19.6634 19.9171 21.4868 19.9171 23.7304C19.9171 25.9774 21.7441 27.8008 23.9876 27.8008C26.2346 27.8008 28.0581 25.9774 28.0581 23.7304C28.0581 21.4868 26.2346 19.6634 23.9876 19.6634Z" fill="#8FAEE6"/>
</svg>
