<svg width="33" height="30" viewBox="0 0 33 30" fill="none" xmlns="http://www.w3.org/2000/svg">
<path d="M32.2826 0H0.326087C0.146739 0 0 0.153409 0 0.340909V3.06818C0 3.25568 0.146739 3.40909 0.326087 3.40909H32.2826C32.462 3.40909 32.6087 3.25568 32.6087 3.06818V0.340909C32.6087 0.153409 32.462 0 32.2826 0ZM32.2826 26.5909H0.326087C0.146739 26.5909 0 26.7443 0 26.9318V29.6591C0 29.8466 0.146739 30 0.326087 30H32.2826C32.462 30 32.6087 29.8466 32.6087 29.6591V26.9318C32.6087 26.7443 32.462 26.5909 32.2826 26.5909ZM32.2826 13.2955H0.326087C0.146739 13.2955 0 13.4489 0 13.6364V16.3636C0 16.5511 0.146739 16.7045 0.326087 16.7045H32.2826C32.462 16.7045 32.6087 16.5511 32.6087 16.3636V13.6364C32.6087 13.4489 32.462 13.2955 32.2826 13.2955Z" fill="#3E4A70"/>
</svg>
